Genre:Action | Adventure | Drama
Language:English 
http://www.imdb.com/title/tt0485985/
Source:1080p.BluRay.x264-SECTOR7 Thanks!
Encoder:Tony

Format : MPEG-4
Format profile : Base Media
Codec ID : isom
File size : 2.98 GiB
Duration : 2h 5mn
Overall bit rate mode : Variable
Overall bit rate : 3 414 Kbps

Video
ID : 1
Format : AVC
Format/Info : Advanced Video Codec
Format profile : High@L5.1
Format settings, CABAC : Yes
Format settings, ReFrames : 5 frames
Format settings, GOP : N=1
Codec ID : avc1
Codec ID/Info : Advanced Video Coding
Duration : 2h 5mn
Bit rate : 3 000 Kbps
Maximum bit rate : 20.6 Mbps
Width : 1 280 pixels
Height : 528 pixels
Display aspect ratio : 2.40:1
Frame rate mode : Constant
Frame rate : 23.976 fps
Color space : YUV
Chroma subsampling : 4:2:0
Bit depth : 8 bits
Scan type : Progressive
Bits/(Pixel*Frame) : 0.185
Stream size : 2.59 GiB (87%)
Writing library : x264

Audio
ID : 2
Format : AAC
Format/Info : Advanced Audio Codec
Format profile : LC
Codec ID : 40
Duration : 2h 5mn
Bit rate mode : Variable
Bit rate : 443 Kbps
Maximum bit rate : 566 Kbps
Channel(s) : 6 channels
Channel positions : Front: L C R, Side: L R, LFE
Sampling rate : 48.0 KHz
Compression mode : Lossy
Stream size : 396 MiB (13%)

Plot:
A crew of African American pilots in the Tuskegee training program, having faced segregation while kept mostly on the ground during World War II, are called into duty under the guidance of Col. A.J. Bullard
